# xmcd CD database file
#
# Track frame offsets:
#	150
#	17722
#	37585
#	47160
#	72115
#	106132
#	116010
#	163275
#	204850
#	231780
#	272120
#	282855
#
# Disc length: 4074 seconds
#
# Revision: 0
# Processed by: cddbd v1.5.1PL0 Copyright (c) Steve Scherf et al.
# Submitted via: CDex 1.51
#
DISCID=9d0fe80c
DTITLE=babamadu - bitama
DYEAR=1900
DGENRE=Jazz
TTITLE0=jugulu
TTITLE1=funkapocalypse
TTITLE2=schwaia schwaia
TTITLE3=kiala
TTITLE4=intuition unexplored
TTITLE5=dance of the primitive instinct
TTITLE6=constantly risking reality
TTITLE7=concrete jungle
TTITLE8=joy and resolution
TTITLE9=village song
TTITLE10=bitama
TTITLE11=sabah
EXTD=
EXTT0=
EXTT1=
EXTT2=
EXTT3=
EXTT4=
EXTT5=
EXTT6=
EXTT7=
EXTT8=
EXTT9=
EXTT10=
EXTT11=
PLAYORDER=
